<svg width="193" height="50" viewBox="0 0 193 50" fill="none" xmlns="http://www.w3.org/2000/svg">
<rect width="193" height="50" rx="25" fill="#2F80ED"/>
<path d="M71.597 28H73.053V23.008H78.381V21.744H73.053V18.128H78.749V16.864H71.597V28ZM86.0605 22.352C86.0605 20.512 84.9565 19.696 82.9725 19.696C80.6365 19.696 79.9485 20.976 79.8365 22.096H81.1965C81.3405 21.472 81.5805 20.8 82.9245 20.8C84.4445 20.8 84.6685 21.664 84.6685 22.384V23.072H83.2925C80.8765 23.072 79.4525 23.904 79.4525 25.712C79.4525 26.944 80.2685 28.192 82.1885 28.192C83.7565 28.192 84.4125 27.472 84.7005 26.944C84.7165 27.44 84.7645 27.824 84.8285 28H86.1725C86.1245 27.76 86.0605 26.976 86.0605 26.224V22.352ZM84.6845 24.304C84.6845 25.776 84.4285 27.088 82.4765 27.088C81.4685 27.088 80.8925 26.48 80.8925 25.632C80.8925 24.496 81.7565 24.048 83.3725 24.048H84.6845V24.304ZM93.4893 25.52C93.1533 26.48 92.5613 27.024 91.5533 27.024C90.1453 27.024 89.3613 25.792 89.3613 23.936C89.3613 22.096 90.1773 20.864 91.6013 20.864C92.7853 20.864 93.2973 21.584 93.4893 22.4H94.8813C94.7853 21.36 93.9693 19.696 91.6333 19.696C89.2173 19.696 87.9213 21.696 87.9213 23.984C87.9213 26.592 89.2973 28.192 91.5373 28.192C93.6013 28.192 94.5453 26.912 94.8813 25.52H93.4893ZM103.213 24.192C103.229 23.984 103.229 23.776 103.229 23.52C103.229 21.792 102.381 19.696 99.7571 19.696C97.2931 19.696 96.0771 21.616 96.0771 24.032C96.0771 26.112 97.1171 28.192 99.6611 28.192C101.885 28.192 102.765 26.8 103.085 25.76H101.661C101.405 26.352 100.989 27.024 99.7091 27.024C98.3331 27.024 97.5011 25.84 97.4851 24.192H103.213ZM97.5331 23.216C97.6771 21.792 98.3011 20.8 99.7411 20.8C101.117 20.8 101.789 21.872 101.805 23.216H97.5331ZM105.075 25.28C105.075 26.176 105.075 27.088 105.059 28H106.403C106.435 27.776 106.467 27.344 106.467 26.928C106.867 27.712 107.555 28.192 108.851 28.192C111.139 28.192 112.387 26.24 112.387 23.776C112.387 21.376 111.107 19.696 109.059 19.696C107.587 19.696 106.835 20.352 106.483 21.04V16.256H105.075V25.28ZM110.947 23.808C110.947 25.776 110.099 27.008 108.659 27.008C106.947 27.008 106.403 25.664 106.403 23.968C106.403 22.032 107.011 20.88 108.739 20.88C110.147 20.88 110.947 22.048 110.947 23.808ZM117.557 19.696C115.109 19.696 113.733 21.552 113.733 23.952C113.733 26.4 115.141 28.192 117.461 28.192C119.941 28.192 121.285 26.272 121.285 23.92C121.285 21.376 119.813 19.696 117.557 19.696ZM117.493 20.864C119.013 20.864 119.845 22.128 119.845 23.952C119.845 25.792 118.997 27.024 117.525 27.024C116.069 27.024 115.173 25.728 115.173 23.936C115.173 22.096 115.973 20.864 117.493 20.864ZM126.448 19.696C124 19.696 122.624 21.552 122.624 23.952C122.624 26.4 124.032 28.192 126.352 28.192C128.832 28.192 130.176 26.272 130.176 23.92C130.176 21.376 128.704 19.696 126.448 19.696ZM126.384 20.864C127.904 20.864 128.736 22.128 128.736 23.952C128.736 25.792 127.888 27.024 126.416 27.024C124.96 27.024 124.064 25.728 124.064 23.936C124.064 22.096 124.864 20.864 126.384 20.864ZM133.405 16.256H131.997V28H133.405V25.12L134.621 23.952L137.341 28H138.989L135.581 23.04L138.637 19.888H136.957C135.869 21.088 134.077 22.96 133.405 23.76V16.256Z" fill="white"/>
<path fill-rule="evenodd" clip-rule="evenodd" d="M20 15H36C37.1046 15 38 15.8954 38 17V33C38 34.1046 37.1046 35 36 35H20C18.8954 35 18 34.1046 18 33V17C18 15.8954 18.8954 15 20 15ZM20 17V33H36V17H20ZM27.1331 25.0044H29V31H31V25.0044H32.9824V23.0044H31V22C31 21.4477 31.4477 21 32 21H33V19H32C30.3431 19 29 20.3431 29 22V23.0044H27.1331V25.0044Z" fill="#F2F1EA"/>
</svg>
