<svg width="192" height="50" viewBox="0 0 192 50" fill="none" xmlns="http://www.w3.org/2000/svg">
<rect width="192" height="50" rx="25" fill="black"/>
<path d="M78.6889 22.984H74.1129V24.248H77.2489V24.376C77.2489 26.248 76.6249 27.912 74.1289 27.912C71.6169 27.912 70.5929 25.768 70.5929 23.48C70.5929 21 71.6169 18.936 74.1929 18.936C76.0169 18.936 76.8969 19.848 77.2809 21.096H78.7529C78.4329 19.112 76.8169 17.704 74.2249 17.704C70.8649 17.704 69.0409 20.216 69.0409 23.544C69.0409 26.712 70.7369 29.144 73.9529 29.144C75.9689 29.144 76.9289 28.28 77.4089 27.496C77.4249 28.296 77.4729 28.792 77.5529 29H78.6889V22.984ZM84.3753 20.696C81.9273 20.696 80.5513 22.552 80.5513 24.952C80.5513 27.4 81.9593 29.192 84.2793 29.192C86.7593 29.192 88.1033 27.272 88.1033 24.92C88.1033 22.376 86.6313 20.696 84.3753 20.696ZM84.3113 21.864C85.8313 21.864 86.6633 23.128 86.6633 24.952C86.6633 26.792 85.8153 28.024 84.3433 28.024C82.8873 28.024 81.9913 26.728 81.9913 24.936C81.9913 23.096 82.7913 21.864 84.3113 21.864ZM93.2659 20.696C90.8179 20.696 89.4419 22.552 89.4419 24.952C89.4419 27.4 90.8499 29.192 93.1699 29.192C95.6499 29.192 96.9939 27.272 96.9939 24.92C96.9939 22.376 95.5219 20.696 93.2659 20.696ZM93.2019 21.864C94.7219 21.864 95.5539 23.128 95.5539 24.952C95.5539 26.792 94.7059 28.024 93.2339 28.024C91.7779 28.024 90.8819 26.728 90.8819 24.936C90.8819 23.096 91.6819 21.864 93.2019 21.864ZM105.597 23.224C105.597 22.456 105.613 21.352 105.613 20.888H104.301C104.285 21.048 104.237 21.592 104.221 21.96C104.045 21.416 103.389 20.696 101.837 20.696C99.8846 20.696 98.3326 22.312 98.3326 24.952C98.3326 27.336 99.6926 28.968 101.693 28.968C103.053 28.968 103.789 28.44 104.221 27.544V28.2C104.221 30.056 103.773 31.224 101.933 31.224C100.893 31.224 100.173 30.76 99.9326 29.864H98.5086C98.6526 30.968 99.4046 32.344 101.869 32.344C104.525 32.344 105.597 30.872 105.597 28.264V23.224ZM99.7886 24.888C99.7886 23.144 100.557 21.88 102.061 21.88C103.789 21.88 104.269 22.968 104.269 24.792C104.269 26.584 103.757 27.768 102.013 27.768C100.685 27.768 99.7886 26.6 99.7886 24.888ZM109.395 29V17.256H107.987V29H109.395ZM118.344 25.192C118.36 24.984 118.36 24.776 118.36 24.52C118.36 22.792 117.512 20.696 114.888 20.696C112.424 20.696 111.208 22.616 111.208 25.032C111.208 27.112 112.248 29.192 114.792 29.192C117.016 29.192 117.896 27.8 118.216 26.76H116.792C116.536 27.352 116.12 28.024 114.84 28.024C113.464 28.024 112.632 26.84 112.616 25.192H118.344ZM112.664 24.216C112.808 22.792 113.432 21.8 114.872 21.8C116.248 21.8 116.92 22.872 116.936 24.216H112.664Z" fill="white"/>
<path fill-rule="evenodd" clip-rule="evenodd" d="M26.9211 27V25H35.9211V26C35.9211 31.5228 31.444 36 25.9211 36C20.3983 36 15.9211 31.5228 15.9211 26C15.9211 20.4772 20.3983 16 25.9211 16C29.0011 16 31.8524 17.4025 33.7379 19.7626L32.1753 21.0109C30.6654 19.1209 28.3865 18 25.9211 18C21.5029 18 17.9211 21.5817 17.9211 26C17.9211 30.4183 21.5029 34 25.9211 34C30.0008 34 33.3672 30.9463 33.8592 27H26.9211Z" fill="#F2F1EA"/>
</svg>
